<?xml version="1.0" encoding="UTF-8"?>
<!DOCTYPE svg PUBLIC "-//W3C//DTD SVG 1.1//EN" "http://www.w3.org/Graphics/SVG/1.1/DTD/svg11.dtd">
<!-- Creator: CorelDRAW X8 -->
<svg xmlns="http://www.w3.org/2000/svg" xml:space="preserve" width="140px" height="106px" version="1.1" shape-rendering="geometricPrecision" text-rendering="geometricPrecision" image-rendering="optimizeQuality" fill-rule="evenodd" clip-rule="evenodd"
viewBox="0 0 37 28"
 xmlns:xlink="http://www.w3.org/1999/xlink">
 <g id="Camada_x0020_1">
  <metadata id="CorelCorpID_0Corel-Layer"/>
  <path fill="#ffd000" d="M5 20c1,0 3,0 3,1 3,2 1,5 -1,5 -2,0 -3,0 -3,0 -1,-1 -2,-2 -2,-2 0,-2 1,-3 2,-4l1 0zm11 -6c2,-1 2,1 1,2 -2,0 -2,-2 -1,-2zm-4 0c0,2 -2,3 -4,4 -2,1 -4,0 -6,1 -2,2 -2,4 -1,6 1,3 8,5 10,0 1,-1 1,-3 0,-4 -1,-1 -1,-1 -1,-1 1,-1 2,-1 3,-2 1,0 2,-1 3,-1l7 -3c1,0 14,-4 14,-5 0,0 -2,-1 -3,-1 -1,0 -1,0 -2,0 -1,0 -1,0 -2,0 -5,1 -10,3 -15,5 -1,0 -3,1 -3,1zm-7 -12c3,0 4,1 4,3 0,3 -4,4 -6,2 -2,-2 -1,-5 2,-5zm1 8c1,0 3,1 5,2 0,0 0,1 0,1 1,0 3,-1 3,-1 1,0 1,0 1,0 0,-1 -3,-2 -3,-2 -1,0 -2,-1 -3,-1 1,0 1,-1 1,-1 3,-3 1,-8 -5,-8 -3,0 -5,2 -5,5 0,2 2,5 6,5zm12 7c1,1 2,1 3,1l7 3c1,1 3,2 4,2 2,0 5,-1 5,-1l-7 -4c-1,0 -1,0 -2,-1l-4 -1c0,0 0,-1 -1,0l-5 1z"/>
 </g>
</svg>
