<?xml version="1.0" standalone="no"?>
<!DOCTYPE svg PUBLIC "-//W3C//DTD SVG 20010904//EN"
 "http://www.w3.org/TR/2001/REC-SVG-20010904/DTD/svg10.dtd">
<svg version="1.0" xmlns="http://www.w3.org/2000/svg"
 width="101.000000pt" height="101.000000pt" viewBox="0 0 101.000000 101.000000"
 preserveAspectRatio="xMidYMid meet">
<metadata>
Created by potrace 1.16, written by Peter Selinger 2001-2019
</metadata>
<g transform="translate(0.000000,101.000000) scale(0.100000,-0.100000)"
fill="#f6f6f6" stroke="none">
<path d="M340 987 c-108 -38 -182 -93 -245 -182 -76 -106 -89 -151 -89 -300 0
-142 12 -190 74 -281 l28 -42 -54 -53 c-48 -48 -54 -58 -52 -89 3 -32 6 -35
37 -38 33 -3 51 13 503 465 454 453 469 469 466 503 -3 32 -6 35 -38 38 -31 2
-41 -4 -89 -52 l-53 -54 -45 30 c-79 54 -165 78 -278 78 -79 0 -114 -5 -165
-23z m230 -77 c49 -9 134 -44 170 -69 12 -9 -38 -63 -270 -296 -157 -157 -288
-285 -292 -285 -14 0 -68 127 -79 184 -37 205 126 430 337 465 70 12 75 12
134 1z"/>
<path d="M882 767 l-33 -33 26 -56 c37 -80 49 -161 36 -234 -32 -175 -170
-314 -342 -344 -79 -14 -155 -3 -237 35 l-56 26 -34 -34 -34 -34 29 -21 c85
-60 261 -89 383 -63 120 26 248 116 315 221 97 153 102 372 12 533 -11 20 -23
37 -27 37 -3 0 -21 -15 -38 -33z"/>
</g>
</svg>
